<?xml version="1.0" standalone="no"?>
<!DOCTYPE svg PUBLIC "-//W3C//DTD SVG 20010904//EN"
 "http://www.w3.org/TR/2001/REC-SVG-20010904/DTD/svg10.dtd">
<svg version="1.0" xmlns="http://www.w3.org/2000/svg"
 width="225.000000pt" height="225.000000pt" viewBox="0 0 225.000000 225.000000"
 preserveAspectRatio="xMidYMid meet">

<g transform="translate(0.000000,225.000000) scale(0.100000,-0.100000)"
fill="#000000" stroke="none">
<path d="M1143 1863 c-17 -6 -18 -144 -1 -161 18 -18 56 -14 68 7 14 27 13
134 -2 149 -12 12 -43 15 -65 5z"/>
<path d="M446 1571 c-15 -10 -37 -32 -47 -47 -18 -27 -19 -54 -19 -442 0 -287
3 -420 11 -435 34 -66 99 -96 167 -78 29 8 80 54 249 223 298 300 298 275 10
566 -111 112 -214 210 -229 218 -38 20 -107 18 -142 -5z m296 -269 c148 -148
198 -204 198 -222 0 -18 -50 -74 -197 -222 -287 -289 -273 -300 -273 222 0
522 -15 509 272 222z"/>
<path d="M1142 1578 c-7 -7 -12 -40 -12 -78 0 -71 10 -90 47 -90 30 0 43 28
43 90 0 28 -5 60 -10 71 -12 21 -50 25 -68 7z"/>
<path d="M1761 1579 c-13 -5 -115 -101 -227 -212 -298 -297 -298 -277 9 -583
228 -227 239 -235 316 -214 41 11 84 51 100 93 7 18 11 168 11 420 0 437 0
438 -69 484 -36 25 -96 30 -140 12z m106 -109 c10 -19 13 -118 13 -395 0 -407
-1 -415 -58 -415 -22 0 -65 37 -220 193 -170 170 -192 196 -192 224 0 29 23
55 196 228 166 166 201 196 223 193 15 -2 31 -13 38 -28z"/>
<path d="M1141 1296 c-7 -9 -11 -42 -9 -88 3 -73 3 -73 33 -76 19 -3 33 2 42
14 16 21 17 117 3 145 -12 22 -52 25 -69 5z"/>
<path d="M1141 1016 c-7 -9 -11 -42 -9 -88 3 -72 3 -73 31 -76 45 -5 57 13 57
84 0 44 -5 67 -16 78 -19 20 -48 21 -63 2z"/>
<path d="M1148 739 c-15 -8 -18 -24 -18 -84 0 -65 3 -76 21 -85 16 -9 26 -8
45 5 21 14 24 23 24 79 0 48 -4 67 -18 79 -21 19 -30 20 -54 6z"/>
<path d="M1148 459 c-15 -8 -18 -24 -18 -85 0 -70 2 -75 25 -86 21 -9 28 -8
45 7 28 25 29 134 2 158 -21 19 -30 20 -54 6z"/>
</g>
</svg>
